<svg width="39" height="39" viewBox="0 0 39 39" fill="none" xmlns="http://www.w3.org/2000/svg">
<rect width="38.6667" height="38.6667" rx="5" fill="#52B788"/>
<path d="M13.3841 19.7742H15.9879V30.4936C15.9879 30.7052 16.1594 30.8767 16.371 30.8767H20.7858C20.9974 30.8767 21.1689 30.7052 21.1689 30.4936V19.8247H24.1622C24.3568 19.8247 24.5206 19.6787 24.5428 19.4854L24.9974 15.539C25.0099 15.4305 24.9755 15.3217 24.9029 15.2403C24.8301 15.1588 24.7261 15.1121 24.6169 15.1121H21.1691V12.6383C21.1691 11.8926 21.5706 11.5145 22.3626 11.5145C22.4755 11.5145 24.6169 11.5145 24.6169 11.5145C24.8285 11.5145 25 11.3429 25 11.1314V7.50901C25 7.29737 24.8285 7.12588 24.6169 7.12588H21.5101C21.4882 7.12481 21.4396 7.12305 21.3679 7.12305C20.8288 7.12305 18.9551 7.22887 17.475 8.59049C15.8351 10.0994 16.0631 11.906 16.1175 12.2193V15.112H13.3841C13.1725 15.112 13.001 15.2835 13.001 15.4951V19.391C13.001 19.6027 13.1725 19.7742 13.3841 19.7742Z" fill="white"/>
</svg>
