<svg width="39" height="39" viewBox="0 0 39 39" fill="none" xmlns="http://www.w3.org/2000/svg">
<rect width="38.6667" height="38.6667" rx="5" fill="#52B788"/>
<path d="M13.3757 17.068C13.1629 17.6899 13.0548 18.3427 13.0557 19C13.0557 19.734 13.1877 20.437 13.4317 21.086C13.7358 21.8972 14.2135 22.6321 14.8313 23.2393C15.4492 23.8466 16.1922 24.3115 17.0085 24.6015C17.8248 24.8916 18.6947 24.9998 19.5571 24.9185C20.4196 24.8372 21.2539 24.5684 22.0017 24.131H22.0027C23.1807 23.4404 24.0859 22.3661 24.5667 21.088H19.2197V17.132H28.8247C29.0731 18.4405 29.0581 19.7854 28.7807 21.088C28.2999 23.3399 27.0565 25.3568 25.2607 26.798C23.4869 28.2264 21.2771 29.0035 18.9997 29C17.2826 29.001 15.5943 28.5597 14.0973 27.7187C12.6003 26.8778 11.3451 25.6655 10.4527 24.1986C9.56024 22.7317 9.06061 21.0597 9.00193 19.3437C8.94326 17.6276 9.32751 15.9254 10.1177 14.401C10.9606 12.7729 12.2351 11.408 13.8016 10.4554C15.368 9.50284 17.1663 8.99936 18.9997 9C21.4257 9 23.6507 9.864 25.3827 11.302L22.1427 13.954C21.3837 13.4816 20.528 13.1864 19.6392 13.0903C18.7504 12.9942 17.8514 13.0997 17.009 13.3989C16.1666 13.6982 15.4025 14.1834 14.7734 14.8186C14.1444 15.4539 13.6666 16.2227 13.3757 17.068Z" fill="white"/>
</svg>
