<svg width="324" height="324" viewBox="0 0 324 324" fill="none" xmlns="http://www.w3.org/2000/svg">
<circle cx="162" cy="162" r="150" stroke="#C7E8D8" stroke-width="22"/>
<path d="M312 162C312 244.843 244.843 312 162 312C79.1573 312 12 244.843 12 162C12 79.1573 79.1573 12 162 12" stroke="#52B788" stroke-width="24" stroke-linecap="round"/>
<path d="M140.12 138.416C139.688 133.232 136.328 128.24 128.792 128.24C119.72 128.24 115.976 134.24 115.976 146.24C115.976 156.704 118.568 164.192 129.128 164.192C136.664 164.192 141.08 159.392 141.08 152.432C141.08 145.136 136.76 141.152 130.664 141.152C127.448 141.152 124.616 142.496 123.224 144.752C123.272 137.984 124.712 134.864 128.408 134.864C130.856 134.864 132.008 136.112 132.488 138.416H140.12ZM128.696 147.632C131.768 147.632 133.352 149.552 133.352 152.48C133.352 155.456 131.576 157.232 128.792 157.232C125.672 157.232 123.896 155.408 123.896 152.336C123.896 149.168 126.104 147.632 128.696 147.632ZM145.866 129.008V136.016H160.794L148.602 164H157.003L169.051 135.104V129.008H145.866ZM172.658 137.792C172.658 143.12 176.114 145.904 180.674 145.904C185.234 145.904 188.642 143.12 188.642 137.792C188.642 132.464 185.234 129.68 180.674 129.68C176.114 129.68 172.658 132.464 172.658 137.792ZM180.626 134.48C182.066 134.48 182.978 135.488 182.978 137.792C182.978 140.048 182.066 141.056 180.626 141.056C179.186 141.056 178.322 140.048 178.322 137.792C178.322 135.488 179.186 134.48 180.626 134.48ZM178.85 164H186.77L205.25 130.208H197.33L178.85 164ZM195.506 156.416C195.506 161.744 198.914 164.528 203.474 164.528C208.034 164.528 211.442 161.744 211.442 156.416C211.442 151.04 208.034 148.304 203.474 148.304C198.914 148.304 195.506 151.04 195.506 156.416ZM203.426 153.104C204.866 153.104 205.778 154.16 205.778 156.416C205.778 158.672 204.866 159.68 203.426 159.68C201.986 159.68 201.122 158.672 201.122 156.416C201.122 154.16 201.986 153.104 203.426 153.104Z" fill="#081C15"/>
<path d="M80.622 201.256C80.622 202.32 79.866 202.95 78.606 202.95H76.352V199.506H78.564C79.81 199.506 80.622 200.178 80.622 201.256ZM80.37 196.874C80.37 197.868 79.684 198.456 78.494 198.456H76.352V195.292H78.466C79.712 195.292 80.37 195.908 80.37 196.874ZM81.896 201.382C81.896 200.178 81.028 199.156 79.964 198.974C80.902 198.666 81.672 197.952 81.672 196.72C81.672 195.362 80.636 194.242 78.578 194.242H75.078V204H78.718C80.734 204 81.896 202.852 81.896 201.382ZM90.4679 196.328H89.1939V200.542C89.1939 202.194 88.3119 203.006 86.9959 203.006C85.7079 203.006 84.8539 202.208 84.8539 200.654V196.328H83.5939V200.822C83.5939 203.02 84.9799 204.112 86.7439 204.112C87.7659 204.112 88.7039 203.664 89.1939 202.866V204H90.4679V196.328ZM93.893 199.828C93.893 198.05 94.817 197.504 96.035 197.504H96.371V196.188C95.153 196.188 94.327 196.72 93.893 197.574V196.328H92.619V204H93.893V199.828ZM103.456 204H104.716V199.478C104.716 197.28 103.358 196.188 101.58 196.188C100.544 196.188 99.6197 196.622 99.1157 197.42V196.328H97.8417V204H99.1157V199.758C99.1157 198.106 100.012 197.294 101.314 197.294C102.602 197.294 103.456 198.092 103.456 199.66V204ZM114.077 200.15C114.077 197.728 112.383 196.202 110.199 196.202C108.029 196.202 106.321 197.728 106.321 200.15C106.321 202.586 107.973 204.126 110.143 204.126C112.327 204.126 114.077 202.586 114.077 200.15ZM107.623 200.15C107.623 198.218 108.841 197.308 110.185 197.308C111.501 197.308 112.775 198.218 112.775 200.15C112.775 202.096 111.473 203.006 110.143 203.006C108.813 203.006 107.623 202.096 107.623 200.15ZM122.556 196.328H121.282V200.542C121.282 202.194 120.4 203.006 119.084 203.006C117.796 203.006 116.942 202.208 116.942 200.654V196.328H115.682V200.822C115.682 203.02 117.068 204.112 118.832 204.112C119.854 204.112 120.792 203.664 121.282 202.866V204H122.556V196.328ZM124.987 201.9C124.987 203.44 125.757 204 127.115 204H128.263V202.922H127.325C126.541 202.922 126.261 202.656 126.261 201.9V197.378H128.263V196.328H126.261V194.396H124.987V196.328H123.993V197.378H124.987V201.9ZM133.539 204H134.813V194.242H133.539V204ZM142.598 204H143.858V199.478C143.858 197.28 142.5 196.188 140.722 196.188C139.686 196.188 138.762 196.622 138.258 197.42V196.328H136.984V204H138.258V199.758C138.258 198.106 139.154 197.294 140.456 197.294C141.744 197.294 142.598 198.092 142.598 199.66V204ZM145.463 200.136C145.463 202.516 147.045 204.126 149.103 204.126C150.503 204.126 151.497 203.412 151.959 202.558V204H153.247V193.64H151.959V197.7C151.427 196.818 150.321 196.202 149.117 196.202C147.045 196.202 145.463 197.742 145.463 200.136ZM151.959 200.15C151.959 201.956 150.755 203.006 149.355 203.006C147.955 203.006 146.765 201.942 146.765 200.136C146.765 198.33 147.955 197.308 149.355 197.308C150.755 197.308 151.959 198.372 151.959 200.15ZM158.662 197.28C159.978 197.28 161.098 198.106 161.084 199.604H156.24C156.38 198.106 157.416 197.28 158.662 197.28ZM162.246 201.634H160.874C160.594 202.46 159.866 203.048 158.718 203.048C157.416 203.048 156.324 202.194 156.226 200.64H162.358C162.386 200.374 162.4 200.15 162.4 199.87C162.4 197.77 160.944 196.202 158.718 196.202C156.478 196.202 154.924 197.728 154.924 200.15C154.924 202.586 156.534 204.126 158.718 204.126C160.622 204.126 161.854 203.034 162.246 201.634ZM168.086 204H169.528L167.05 200.122L169.514 196.328H168.184L166.448 199.17L164.628 196.328H163.186L165.664 200.192L163.186 204H164.516L166.266 201.144L168.086 204ZM181.794 200.15C181.794 197.728 180.1 196.202 177.916 196.202C175.746 196.202 174.038 197.728 174.038 200.15C174.038 202.586 175.69 204.126 177.86 204.126C180.044 204.126 181.794 202.586 181.794 200.15ZM175.34 200.15C175.34 198.218 176.558 197.308 177.902 197.308C179.218 197.308 180.492 198.218 180.492 200.15C180.492 202.096 179.19 203.006 177.86 203.006C176.53 203.006 175.34 202.096 175.34 200.15ZM190.273 196.328H188.999V200.542C188.999 202.194 188.117 203.006 186.801 203.006C185.513 203.006 184.659 202.208 184.659 200.654V196.328H183.399V200.822C183.399 203.02 184.785 204.112 186.549 204.112C187.571 204.112 188.509 203.664 188.999 202.866V204H190.273V196.328ZM192.704 201.9C192.704 203.44 193.474 204 194.832 204H195.98V202.922H195.042C194.258 202.922 193.978 202.656 193.978 201.9V197.378H195.98V196.328H193.978V194.396H192.704V196.328H191.71V197.378H192.704V201.9ZM208.536 200.15C208.536 197.728 206.842 196.202 204.658 196.202C202.488 196.202 200.78 197.728 200.78 200.15C200.78 202.586 202.432 204.126 204.602 204.126C206.786 204.126 208.536 202.586 208.536 200.15ZM202.082 200.15C202.082 198.218 203.3 197.308 204.644 197.308C205.96 197.308 207.234 198.218 207.234 200.15C207.234 202.096 205.932 203.006 204.602 203.006C203.272 203.006 202.082 202.096 202.082 200.15ZM210.449 204H211.723V197.378H213.333V196.328H211.723V195.782C211.723 194.788 212.101 194.368 213.249 194.368V193.304C211.289 193.304 210.449 194.074 210.449 195.782V196.328H209.455V197.378H210.449V204ZM219.349 204H220.637V193.878H218.005V195.04H219.349V204ZM222.825 198.834C222.825 201.774 223.553 204 226.353 204C229.139 204 229.867 201.774 229.867 198.834C229.867 195.936 229.139 193.724 226.353 193.724C223.553 193.724 222.825 195.936 222.825 198.834ZM228.607 198.834C228.607 201.018 228.341 202.838 226.353 202.838C224.351 202.838 224.085 201.018 224.085 198.834C224.085 196.734 224.351 194.886 226.353 194.886C228.341 194.886 228.607 196.734 228.607 198.834ZM231.616 198.834C231.616 201.774 232.344 204 235.144 204C237.93 204 238.658 201.774 238.658 198.834C238.658 195.936 237.93 193.724 235.144 193.724C232.344 193.724 231.616 195.936 231.616 198.834ZM237.398 198.834C237.398 201.018 237.132 202.838 235.144 202.838C233.142 202.838 232.876 201.018 232.876 198.834C232.876 196.734 233.142 194.886 235.144 194.886C237.132 194.886 237.398 196.734 237.398 198.834ZM240.127 196.16C240.127 197.476 241.009 198.26 242.171 198.26C243.347 198.26 244.215 197.476 244.215 196.16C244.215 194.858 243.347 194.074 242.171 194.074C241.009 194.074 240.127 194.858 240.127 196.16ZM242.171 194.858C242.787 194.858 243.207 195.278 243.207 196.16C243.207 197.028 242.787 197.476 242.171 197.476C241.555 197.476 241.149 197.028 241.149 196.16C241.149 195.278 241.555 194.858 242.171 194.858ZM241.373 204H242.633L248.303 194.228H247.043L241.373 204ZM245.489 202.068C245.489 203.37 246.357 204.168 247.533 204.168C248.695 204.168 249.563 203.37 249.563 202.068C249.563 200.752 248.695 199.968 247.533 199.968C246.357 199.968 245.489 200.752 245.489 202.068ZM247.519 200.766C248.135 200.766 248.555 201.186 248.555 202.068C248.555 202.936 248.135 203.356 247.519 203.356C246.903 203.356 246.483 202.936 246.483 202.068C246.483 201.186 246.903 200.766 247.519 200.766Z" fill="#081C15"/>
</svg>
