<?xml version="1.0" encoding="UTF-8"?>
<svg id="Layer_1" data-name="Layer 1" xmlns="http://www.w3.org/2000/svg" viewBox="0 0 100 100">
  <defs>
    <style>
      .cls-1 {
        fill: #f4d790;
      }

      .cls-2 {
        fill: #ffc40d;
      }
    </style>
  </defs>
  <rect class="cls-2" width="100" height="100" rx="20.11" ry="20.11"/>
  <path class="cls-1" d="m51.35,67.89h-17.7c-3.16,0-5.72-2.56-5.72-5.72,0-3.16,2.56-5.72,5.72-5.72h17.7s11.44,0,11.44,0h3.98c3.16,0,5.72,2.56,5.72,5.72,0,1.58-.64,3.01-1.68,4.05s-2.47,1.68-4.05,1.68h-3.98s-11.44,0-11.44,0Z"/>
  <path class="cls-1" d="m51.35,43.97h-17.7c-3.16,0-5.72-2.56-5.72-5.72,0-3.16,2.56-5.72,5.72-5.72h17.7s11.44,0,11.44,0h3.98c3.16,0,5.72,2.56,5.72,5.72,0,1.58-.64,3.01-1.68,4.05s-2.47,1.68-4.05,1.68h-3.98s-11.44,0-11.44,0Z"/>
</svg>