<?xml version="1.0" encoding="UTF-8"?>
<svg id="Layer_1" data-name="Layer 1" xmlns="http://www.w3.org/2000/svg" viewBox="0 0 100 100">
  <defs>
    <style>
      .cls-1 {
        fill: #00a300;
      }

      .cls-2 {
        fill: #54b554;
      }
    </style>
  </defs>
  <rect class="cls-1" width="100" height="100" rx="20.06" ry="20.06"/>
  <path class="cls-2" d="m72.17,30.01c-2.56-1.47-5.82-.59-7.29,1.97l-15.01,26.11-16.72-9.62c-2.56-1.47-5.82-.59-7.29,1.97-1.47,2.55-.59,5.82,1.97,7.29l21.35,12.28c1.28.74,2.73.88,4.05.53s2.5-1.21,3.24-2.49c.07-.12.12-.24.18-.36.07-.11.15-.22.21-.33l17.28-30.05c1.47-2.55.59-5.82-1.97-7.29Z"/>
</svg>