<?xml version="1.0" encoding="UTF-8"?>
<svg id="Layer_1" data-name="Layer 1" xmlns="http://www.w3.org/2000/svg" viewBox="0 0 100 100">
  <defs>
    <style>
      .cls-1 {
        fill: #ce4441;
      }

      .cls-2 {
        fill: #e11;
      }
    </style>
  </defs>
  <rect class="cls-2" width="100" height="100" rx="20" ry="20"/>
  <path class="cls-1" d="m58.09,50l12.51-12.51c2.23-2.23,2.23-5.86,0-8.09-2.23-2.24-5.86-2.24-8.09,0l-12.51,12.51-12.51-12.51c-2.23-2.24-5.86-2.24-8.09,0-2.23,2.23-2.23,5.86,0,8.09l12.51,12.51-12.51,12.51c-2.23,2.23-2.23,5.86,0,8.09,1.12,1.12,2.58,1.68,4.04,1.68s2.93-.56,4.04-1.68l12.51-12.51,12.51,12.51c1.12,1.12,2.58,1.68,4.04,1.68s2.93-.56,4.04-1.68c2.23-2.23,2.23-5.86,0-8.09l-12.51-12.51Z"/>
</svg>