<?xml version="1.0" encoding="UTF-8"?>
<svg id="Layer_1" data-name="Layer 1" xmlns="http://www.w3.org/2000/svg" viewBox="0 0 100 100">
  <defs>
    <style>
      .cls-1 {
        fill: #197f5a;
      }

      .cls-2 {
        fill: #004d33;
      }
    </style>
  </defs>
  <rect class="cls-2" width="100" height="100" rx="20.22" ry="20.22"/>
  <path class="cls-1" d="m71.23,24.51c-2.56-1.47-5.82-.59-7.29,1.97l-15.01,26.11-16.72-9.62c-2.56-1.47-5.82-.59-7.29,1.97-1.47,2.55-.59,5.82,1.97,7.29l21.35,12.28c1.28.74,2.73.88,4.05.53s2.5-1.21,3.24-2.49c.07-.12.12-.24.18-.36.07-.11.15-.22.21-.33l17.28-30.05c1.47-2.55.59-5.82-1.97-7.29Z"/>
  <g>
    <path class="cls-1" d="m54.14,79.73c-1.28,0-2.54-.34-3.65-.98l-21.35-12.28c-1.7-.98-2.92-2.56-3.43-4.45-.51-1.89-.25-3.87.72-5.57,1.31-2.27,3.74-3.68,6.37-3.68,1.28,0,2.54.34,3.65.98l14.99,8.62,14.02-24.38c1.31-2.27,3.74-3.68,6.37-3.68,1.28,0,2.54.34,3.65.98,1.7.98,2.92,2.56,3.43,4.45.51,1.89.25,3.87-.72,5.57l-17.28,30.05c-.07.12-.14.23-.21.33-.06.13-.12.24-.19.36-.98,1.7-2.56,2.91-4.45,3.43-.63.17-1.27.25-1.92.25h0Z"/>
    <path class="cls-2" d="m71.82,36.32c.9,0,1.82.23,2.66.71,2.56,1.47,3.44,4.73,1.97,7.29l-17.28,30.05c-.07.12-.14.22-.21.33-.06.12-.11.24-.18.36-.73,1.28-1.92,2.14-3.24,2.49-.45.12-.92.19-1.4.19-.9,0-1.82-.23-2.66-.71l-21.35-12.28c-2.56-1.47-3.44-4.73-1.97-7.29.99-1.72,2.78-2.68,4.63-2.68.9,0,1.82.23,2.66.71l16.72,9.62,15.01-26.11c.99-1.72,2.78-2.68,4.63-2.68m0-4c-3.33,0-6.44,1.79-8.1,4.68l-13.02,22.64-13.26-7.62c-1.41-.81-3.02-1.24-4.65-1.24-3.33,0-6.44,1.79-8.1,4.68-1.24,2.16-1.57,4.68-.92,7.09.65,2.41,2.2,4.42,4.36,5.66l21.35,12.28c1.41.81,3.02,1.24,4.65,1.24.82,0,1.64-.11,2.44-.32,2.41-.65,4.42-2.2,5.66-4.36.07-.12.13-.23.19-.35.07-.11.14-.22.21-.34l17.28-30.05c1.24-2.16,1.57-4.68.92-7.09-.65-2.41-2.2-4.42-4.36-5.66-1.41-.81-3.02-1.24-4.65-1.24h0Z"/>
  </g>
</svg>