<svg width="39" height="39" viewBox="0 0 39 39" fill="none" xmlns="http://www.w3.org/2000/svg">
<rect width="38.6667" height="38.6667" rx="5" fill="#52B788"/>
<g clip-path="url(#clip0_138_1043)">
<path d="M14.4215 16.1128H10.6072C10.4379 16.1128 10.3008 16.25 10.3008 16.4192V28.6729C10.3008 28.8422 10.4379 28.9793 10.6072 28.9793H14.4215C14.5908 28.9793 14.728 28.8422 14.728 28.6729V16.4192C14.728 16.25 14.5908 16.1128 14.4215 16.1128Z" fill="white"/>
<path d="M12.5169 10.021C11.1291 10.021 10 11.1489 10 12.5352C10 13.9221 11.1291 15.0504 12.5169 15.0504C13.9037 15.0504 15.0319 13.9221 15.0319 12.5352C15.0319 11.1489 13.9037 10.021 12.5169 10.021Z" fill="white"/>
<path d="M24.1249 15.8081C22.5929 15.8081 21.4604 16.4667 20.7736 17.215V16.4191C20.7736 16.2499 20.6364 16.1127 20.4671 16.1127H16.8143C16.645 16.1127 16.5078 16.2499 16.5078 16.4191V28.6728C16.5078 28.842 16.645 28.9792 16.8143 28.9792H20.6202C20.7895 28.9792 20.9267 28.842 20.9267 28.6728V22.61C20.9267 20.5671 21.4816 19.7711 22.9057 19.7711C24.4567 19.7711 24.58 21.0471 24.58 22.7152V28.6728C24.58 28.8421 24.7172 28.9793 24.8864 28.9793H28.6938C28.8631 28.9793 29.0003 28.8421 29.0003 28.6728V21.9515C29.0003 18.9136 28.421 15.8081 24.1249 15.8081Z" fill="white"/>
</g>
<defs>
<clipPath id="clip0_138_1043">
<rect width="19" height="19" fill="white" transform="translate(10 10)"/>
</clipPath>
</defs>
</svg>
