<svg width="44" height="54" viewBox="0 0 44 54" fill="none" xmlns="http://www.w3.org/2000/svg">
<path d="M44 22.5437C44 34.6969 36.5216 43.8546 22.5381 53.3057C21.92 53.7234 21.0989 53.6958 20.5078 53.2407C7.02711 42.859 0 34.6994 0 22.5437C0 10.0932 9.07359 0 21.5 0C33.9264 0 44 10.0932 44 22.5437Z" fill="#52B788"/>
<circle cx="22" cy="22" r="16" fill="white"/>
<path d="M12.932 27H14.542V16.794H11.63V18.25H12.932V27ZM17.1545 16.766V22.66H18.6665C18.9325 21.904 19.5625 21.386 20.5005 21.386C21.8305 21.386 22.4885 22.142 22.4885 23.472C22.4885 24.732 21.8725 25.67 20.5005 25.67C19.4225 25.67 18.6945 25.11 18.4845 24.242H16.9305C17.1685 25.838 18.3865 27 20.4865 27C22.8525 27 24.0145 25.46 24.0145 23.43C24.0145 21.89 23.2445 20.028 20.7385 20.028C19.8285 20.028 19.0025 20.448 18.6245 20.952V18.166H23.3145V16.766H17.1545ZM29.0919 18.376V21.274H26.2639V22.618H29.0919V25.516H30.5759V22.618H33.4039V21.274H30.5759V18.376H29.0919Z" fill="black"/>
</svg>
