<svg width="39" height="39" viewBox="0 0 39 39" fill="none" xmlns="http://www.w3.org/2000/svg">
<rect width="38.6667" height="38.6667" rx="5" fill="#52B788"/>
<g clip-path="url(#clip0_138_1050)">
<path d="M30.4788 12.2577C30.1175 12.4179 29.746 12.5532 29.3664 12.663C29.8158 12.1548 30.1584 11.5568 30.3676 10.9024C30.4145 10.7557 30.3659 10.5951 30.2453 10.4992C30.1249 10.4032 29.9576 10.3917 29.825 10.4703C29.0189 10.9484 28.1492 11.292 27.2373 11.4929C26.3187 10.5953 25.071 10.0845 23.7813 10.0845C21.0587 10.0845 18.8438 12.2994 18.8438 15.0218C18.8438 15.2362 18.8573 15.4495 18.8842 15.6597C15.5058 15.3631 12.365 13.7026 10.2082 11.0569C10.1313 10.9626 10.0129 10.9118 9.89165 10.9215C9.77035 10.931 9.66136 10.9994 9.60007 11.1046C9.16263 11.8552 8.93137 12.7137 8.93137 13.5872C8.93137 14.7768 9.35612 15.9056 10.1064 16.7876C9.8783 16.7086 9.65691 16.6099 9.4456 16.4926C9.33216 16.4294 9.19371 16.4304 9.08102 16.495C8.96824 16.5596 8.89753 16.6785 8.89457 16.8084C8.89405 16.8303 8.89405 16.8522 8.89405 16.8744C8.89405 18.6502 9.84981 20.249 11.311 21.1204C11.1855 21.1079 11.0601 21.0897 10.9354 21.0659C10.8069 21.0413 10.6748 21.0863 10.5881 21.1843C10.5013 21.2823 10.4726 21.4188 10.5126 21.5434C11.0534 23.2321 12.446 24.4742 14.1294 24.8528C12.7332 25.7274 11.1365 26.1854 9.46029 26.1854C9.11054 26.1854 8.75879 26.1649 8.41453 26.1242C8.24352 26.1038 8.08 26.2048 8.02175 26.3674C7.96351 26.5301 8.02524 26.7115 8.17073 26.8048C10.3241 28.1855 12.8139 28.9152 15.371 28.9152C20.3979 28.9152 23.5426 26.5448 25.2954 24.5561C27.4812 22.0765 28.7347 18.7944 28.7347 15.5515C28.7347 15.416 28.7326 15.2792 28.7285 15.1428C29.5908 14.4931 30.3333 13.7068 30.9375 12.8031C31.0292 12.6658 31.0193 12.4844 30.913 12.3581C30.8068 12.2316 30.6298 12.1908 30.4788 12.2577Z" fill="white"/>
</g>
<defs>
<clipPath id="clip0_138_1050">
<rect width="23" height="23" fill="white" transform="translate(8 8)"/>
</clipPath>
</defs>
</svg>
