<svg width="18" height="18" viewBox="0 0 18 18" fill="none" xmlns="http://www.w3.org/2000/svg">
<path d="M15.1875 0.0625H2.8125C2.0834 0.0632961 1.38439 0.353283 0.868836 0.868836C0.353283 1.38439 0.0632961 2.0834 0.0625 2.8125V15.1875C0.0632961 15.9166 0.353283 16.6156 0.868836 17.1312C1.38439 17.6467 2.0834 17.9367 2.8125 17.9375H15.1875C15.9166 17.9367 16.6156 17.6467 17.1312 17.1312C17.6467 16.6156 17.9367 15.9166 17.9375 15.1875V2.8125C17.9367 2.0834 17.6467 1.38439 17.1312 0.868836C16.6156 0.353283 15.9166 0.0632961 15.1875 0.0625ZM13.6514 6.00465L7.87637 12.8796C7.81302 12.9551 7.73419 13.0161 7.64523 13.0584C7.55627 13.1007 7.45925 13.1234 7.36074 13.125H7.34914C7.25278 13.125 7.1575 13.1047 7.06948 13.0654C6.98147 13.0262 6.90269 12.9689 6.83824 12.8973L4.36324 10.1473C4.30039 10.0806 4.25149 10.002 4.21943 9.9162C4.18737 9.83037 4.17279 9.73899 4.17655 9.64744C4.1803 9.55589 4.20232 9.46602 4.24131 9.3831C4.2803 9.30018 4.33547 9.22589 4.40358 9.1646C4.47169 9.10331 4.55136 9.05625 4.63791 9.02619C4.72447 8.99613 4.81616 8.98368 4.9076 8.98956C4.99904 8.99544 5.08838 9.01954 5.17037 9.06044C5.25236 9.10134 5.32534 9.15822 5.38504 9.22773L7.33109 11.3899L12.5986 5.12035C12.7168 4.98375 12.884 4.89912 13.064 4.88478C13.244 4.87043 13.4225 4.92751 13.5608 5.04368C13.6991 5.15985 13.7861 5.32578 13.8031 5.5056C13.82 5.68542 13.7655 5.86469 13.6514 6.00465Z" fill="#69C3AE"/>
</svg>
