<svg width="54" height="54" viewBox="0 0 54 54" fill="none" xmlns="http://www.w3.org/2000/svg">
<g clip-path="url(#clip0_127_1086)">
<path opacity="0.1" d="M3.3974 21.5427L9.5144 27.8933C9.9459 28.3413 10.2462 28.8969 10.4123 29.4963C11.0509 31.8018 12.104 34.5707 13.595 37.2488C17.2018 43.7277 23.3712 49.6755 32.4347 47.247C41.4983 44.8184 43.7823 36.6055 43.5833 29.2135C43.5008 26.1511 42.9922 23.2295 42.3629 20.9185C42.2022 20.328 42.1747 19.7076 42.3099 19.1108L44.2354 10.6072C44.5748 9.10825 43.9012 7.54636 42.5276 6.85685C23.1927 -2.84886 8.98157 8.6442 2.96268 17.4602C2.09049 18.7377 2.32429 20.4286 3.3974 21.5427Z" fill="#52B788"/>
<path d="M11.9409 31.842L5.16498 24.8073C4.09187 23.6932 3.85807 22.0024 4.73026 20.7249C10.7492 11.9089 24.9602 0.415789 44.2952 10.1215C45.6688 10.811 46.3424 12.3729 46.003 13.8719L43.8712 23.2863M11.9409 31.842L11.9409 46.674M11.9409 31.842C16.8318 29.0444 22.377 27.0946 27.5729 25.7702C34.3346 24.0466 40.5047 23.382 43.8712 23.2863M11.9409 31.842C12.5385 34.307 13.6676 37.4689 15.3625 40.5135C18.9694 46.9924 25.1388 52.9402 34.2023 50.5116C43.2658 48.0831 45.5498 39.8702 45.3508 32.4781C45.2573 29.0045 44.6155 25.712 43.8712 23.2863M43.8712 23.2863L51.7187 37.2629" stroke="#081C15" stroke-width="2" stroke-linecap="round"/>
<path d="M24.459 13.2041L26.5468 20.9958" stroke="#52B788" stroke-width="2" stroke-linecap="round"/>
<path d="M29.3984 16.0557L21.6067 18.1435" stroke="#52B788" stroke-width="2" stroke-linecap="round"/>
</g>
<defs>
<clipPath id="clip0_127_1086">
<rect width="54" height="54" fill="white"/>
</clipPath>
</defs>
</svg>
