<svg width="300" height="54" viewBox="0 0 300 54" fill="none" xmlns="http://www.w3.org/2000/svg">
<path d="M87.728 29.984C87.728 24.344 79.4 25.664 79.4 22.736C79.4 21.68 80.144 21.176 81.128 21.2C82.232 21.224 83 21.872 83.072 22.952H87.512C87.344 19.736 84.872 17.912 81.2 17.912C77.672 17.912 75.056 19.688 75.056 22.88C75.008 28.856 83.432 27.176 83.432 30.296C83.432 31.28 82.664 31.88 81.464 31.88C80.312 31.88 79.496 31.256 79.376 29.96H75.008C75.128 33.368 77.96 35.168 81.584 35.168C85.52 35.168 87.728 32.816 87.728 29.984ZM104.63 35H108.974L102.878 18.152H98.1256L92.0296 35H96.3256L97.3336 32.024H103.622L104.63 35ZM102.566 28.856H98.4136L100.478 22.688L102.566 28.856ZM113.709 35H117.813V28.184H122.949V24.992H117.813V21.44H124.677V18.152H113.709V35ZM140.034 18.152H129.714V35H140.034V31.712H133.818V28.016H139.314V24.848H133.818V21.44H140.034V18.152ZM154.482 23.624C154.482 24.944 153.762 25.736 152.226 25.736H149.682V21.56H152.226C153.762 21.56 154.482 22.376 154.482 23.624ZM145.578 18.152V35H149.682V28.64H150.666L154.17 35H158.802L154.914 28.328C157.506 27.56 158.658 25.568 158.658 23.456C158.658 20.528 156.594 18.152 152.466 18.152H145.578Z" fill="#52B788"/>
<path d="M183.049 18.152V28.592L176.184 18.152H172.08V35H176.184V24.608L183.049 35H187.153V18.152H183.049ZM192.935 28.208C192.935 32.864 195.983 35.168 199.895 35.168C203.783 35.168 207.047 32.864 207.047 28.208V18.152H202.943V28.232C202.943 30.224 201.911 31.376 199.967 31.376C198.023 31.376 197.039 30.224 197.039 28.232V18.152H192.935V28.208ZM221.713 23.624C221.713 24.944 220.993 25.736 219.457 25.736H216.913V21.56H219.457C220.993 21.56 221.713 22.376 221.713 23.624ZM212.809 18.152V35H216.913V28.64H217.897L221.401 35H226.033L222.145 28.328C224.737 27.56 225.889 25.568 225.889 23.456C225.889 20.528 223.825 18.152 219.697 18.152H212.809ZM243.585 29.984C243.585 24.344 235.257 25.664 235.257 22.736C235.257 21.68 236.001 21.176 236.985 21.2C238.089 21.224 238.857 21.872 238.929 22.952H243.369C243.201 19.736 240.729 17.912 237.057 17.912C233.529 17.912 230.913 19.688 230.913 22.88C230.865 28.856 239.289 27.176 239.289 30.296C239.289 31.28 238.521 31.88 237.321 31.88C236.169 31.88 235.353 31.256 235.233 29.96H230.865C230.985 33.368 233.817 35.168 237.441 35.168C241.377 35.168 243.585 32.816 243.585 29.984ZM248.991 35H253.095V18.152H248.991V35ZM269.917 18.152V28.592L263.053 18.152H258.949V35H263.053V24.608L269.917 35H274.021V18.152H269.917ZM287.748 17.96C282.708 17.96 279.18 21.512 279.18 26.552C279.18 31.592 282.732 35.12 287.772 35.12C292.212 35.12 295.02 32.216 295.884 29.312V25.496H286.956V28.52H292.164C291.54 30.416 290.124 31.496 288.084 31.496C285.132 31.496 283.356 29.672 283.356 26.552C283.356 23.624 285.108 21.752 287.748 21.752C289.284 21.752 290.436 22.352 291.06 23.48H295.596C294.708 20.024 291.78 17.96 287.748 17.96Z" fill="#081C15"/>
<g clip-path="url(#clip0_127_1084)">
<path opacity="0.1" d="M3.3974 21.5427L9.5144 27.8933C9.9459 28.3413 10.2462 28.8969 10.4123 29.4963C11.0509 31.8018 12.104 34.5707 13.595 37.2488C17.2018 43.7277 23.3712 49.6755 32.4347 47.247C41.4983 44.8184 43.7823 36.6055 43.5833 29.2135C43.5008 26.1511 42.9922 23.2295 42.3629 20.9185C42.2022 20.328 42.1747 19.7076 42.3099 19.1108L44.2354 10.6072C44.5748 9.10825 43.9012 7.54636 42.5276 6.85685C23.1927 -2.84886 8.98157 8.6442 2.96268 17.4602C2.09049 18.7377 2.32429 20.4286 3.3974 21.5427Z" fill="#52B788"/>
<path d="M11.9409 31.842L5.16498 24.8073C4.09187 23.6932 3.85807 22.0024 4.73026 20.7249C10.7492 11.9089 24.9602 0.415789 44.2952 10.1215C45.6688 10.811 46.3424 12.3729 46.003 13.8719L43.8712 23.2863M11.9409 31.842L11.9409 46.674M11.9409 31.842C16.8318 29.0444 22.377 27.0946 27.5729 25.7702C34.3346 24.0466 40.5047 23.382 43.8712 23.2863M11.9409 31.842C12.5385 34.307 13.6676 37.4689 15.3625 40.5135C18.9694 46.9924 25.1388 52.9402 34.2023 50.5116C43.2658 48.0831 45.5498 39.8702 45.3508 32.4781C45.2573 29.0045 44.6155 25.712 43.8712 23.2863M43.8712 23.2863L51.7187 37.2629" stroke="#081C15" stroke-width="2" stroke-linecap="round"/>
<path d="M24.459 13.2041L26.5468 20.9958" stroke="#52B788" stroke-width="2" stroke-linecap="round"/>
<path d="M29.3984 16.0557L21.6067 18.1435" stroke="#52B788" stroke-width="2" stroke-linecap="round"/>
</g>
<defs>
<clipPath id="clip0_127_1084">
<rect width="54" height="54" fill="white"/>
</clipPath>
</defs>
</svg>
